<svg xmlns="http://www.w3.org/2000/svg" width="512" height="512" viewBox="0 0 512 512">
  <rect width="512" height="512" rx="128" fill="#3B82F6"/>
  <circle cx="256" cy="256" r="160" fill="white" fill-opacity="0.2"/>
  <circle cx="256" cy="256" r="120" fill="white" fill-opacity="0.3"/>
  <path d="M256 160C202.98 160 160 202.98 160 256C160 309.02 202.98 352 256 352C309.02 352 352 309.02 352 256C352 202.98 309.02 160 256 160ZM256 320C220.65 320 192 291.35 192 256C192 220.65 220.65 192 256 192C291.35 192 320 220.65 320 256C320 291.35 291.35 320 256 320Z" fill="white"/>
  <path d="M256 120C181.02 120 120 181.02 120 256C120 330.98 181.02 392 256 392C330.98 392 392 330.98 392 256C392 181.02 330.98 120 256 120ZM256 360C198.66 360 152 313.34 152 256C152 198.66 198.66 152 256 152C313.34 152 360 198.66 360 256C360 313.34 313.34 360 256 360Z" fill="white" fill-opacity="0.5"/>
</svg>
