<svg id="Layer_1" data-name="Layer 1" xmlns="http://www.w3.org/2000/svg" viewBox="0 0 122.88 89.08"><title>notification-alarm-buzzer</title><path d="M70,9.18a29.87,29.87,0,0,1,13.08,8.23A29.38,29.38,0,0,1,90.54,32.2,58.36,58.36,0,0,1,91,43.12c0,2.45-.08,4.89.1,7.22a22.47,22.47,0,0,0,3,10.12A25.4,25.4,0,0,0,102,68.3a4.35,4.35,0,0,1,1.83,2.53,4.47,4.47,0,0,1,0,2.46,4.64,4.64,0,0,1-1.33,2.09,4.43,4.43,0,0,1-2.94,1.09H75.87v0h0a14.56,14.56,0,0,1-28.85,0H23.35a4.4,4.4,0,0,1-3.05-1.19,4.55,4.55,0,0,1-1.25-4.5A4.32,4.32,0,0,1,21,68.22a24.53,24.53,0,0,0,8.39-8.84,25.3,25.3,0,0,0,2.53-12c0-1.57,0-2.46,0-3.37a62.56,62.56,0,0,1,.52-11.85A29.71,29.71,0,0,1,53.1,9.13a8.56,8.56,0,0,1,3.43-3.79,10,10,0,0,1,10,0A8.6,8.6,0,0,1,70,9.18ZM17.71,3.47a2.09,2.09,0,0,1-.62.6A32.49,32.49,0,0,0,13,7.1"/></svg>